<?xml version="1.0" encoding="UTF-8"?>
<svg id="_Шар_1" data-name="Шар_1" xmlns="http://www.w3.org/2000/svg" version="1.1" viewBox="0 0 1000 1000">
  <!-- Generator: Adobe Illustrator 30.3.0, SVG Export Plug-In . SVG Version: 2.1.3 Build 182)  -->
  <defs>
    <style>
      .st0 {
        fill: none;
        stroke: #de202e;
        stroke-miterlimit: 10;
        stroke-width: 6px;
      }

      .st1 {
        fill: #0f1216;
      }

      .st2 {
        fill: #1d1d1b;
      }

      .st3 {
        display: none;
        fill: #fff;
      }

      .st4 {
        fill: #df202e;
      }
    </style>
  </defs>
  <rect class="st3" width="1000" height="1000"/>
  <g>
    <path class="st4" d="M148.32,484.17l11.29,17.69,10.7,17.49-77.75-30.71-24.89-9.4c5.58-2.46,10-2.5,15.33-3.71l91.39-20.68c.77-.17,1.95.35,2.31.62s.17,2.06-.17,2.38l-28.2,26.32Z"/>
    <path class="st0" d="M281.39,648.99c-31.93.63-62.02-10.31-88.69-29.46-3.42-2.74-5.47-4.79-8.89-7.52-23.94-21.88-38.98-49.24-48.24-79.61"/>
    <path class="st0" d="M283.49,324.19c-25.9-.21-51.99,5.53-74.88,17.81-24.09,12.93-42.12,32.77-56.36,55.84-8.22,13.31-14.91,27.64-18.93,42.8"/>
    <path class="st1" d="M180.51,389.73"/>
    <g>
      <path class="st4" d="M526.61,602.96"/>
      <path class="st4" d="M252.79,573.16"/>
      <path class="st2" d="M555.04,442.86h-38.95l-5.47,9.55h-40.13l48.6-79.83h55.9c8.98,26.69,17.95,53.37,26.93,80.06h-44.21c-.89-3.26-1.79-6.52-2.68-9.78ZM542.16,396.94l-12.66,22.32h18.88l-6.22-22.32Z"/>
      <path class="st2" d="M598.28,425.26h46.67c0,3.43.43,8.58,11.7,8.58,10.41,0,12.34-3.11,12.34-5.69,0-3.11-1.61-5.15-14.59-5.9l-13.2-.75c-29.4-1.72-36.37-12.34-36.37-24.68,0-1.61.32-3.86.64-5.26,3.22-14.06,17.49-20.39,52.9-20.39h13.3c45.71,0,49.03,14.81,47.96,25.64h-45.81c0-2.9-.86-6.44-11.27-6.44-9.33,0-11.91,1.29-11.91,4.18s2.47,4.29,14.7,4.94l13.09.64c29.18,1.39,39.06,8.05,39.06,22.53,0,2.04-.11,4.08-.32,5.58-1.93,14.27-12.34,25.75-56.33,25.75h-13.73c-47.64,0-49.89-18.78-48.82-28.75Z"/>
      <path class="st2" d="M748.7,424.08l-36.27-51.5h44.21l16.2,24.14,24.14-24.14h43.67l-52.25,52.04-4.29,27.79h-39.81l4.4-28.33Z"/>
      <path class="st2" d="M578.25,536.13h46.67c0,3.43.43,8.58,11.7,8.58,10.41,0,12.34-3.11,12.34-5.69,0-3.11-1.61-5.15-14.59-5.9l-13.2-.75c-29.4-1.72-36.37-12.34-36.37-24.68,0-1.61.32-3.86.64-5.26,3.22-14.06,17.49-20.39,52.9-20.39h13.3c45.71,0,49.03,14.81,47.96,25.64h-45.81c0-2.9-.86-6.44-11.27-6.44-9.33,0-11.91,1.29-11.91,4.18s2.47,4.29,14.7,4.94l13.09.64c29.18,1.39,39.06,8.05,39.06,22.53,0,2.04-.11,4.08-.32,5.58-1.93,14.27-12.34,25.75-56.33,25.75h-13.73c-47.64,0-49.89-18.78-48.82-28.75Z"/>
      <path class="st2" d="M735.33,510.91h-33.58l4.4-27.47h106.97l-4.4,27.47h-33.58c-2.82,17.59-5.64,35.19-8.45,52.78h-39.65c2.76-17.59,5.53-35.19,8.29-52.78Z"/>
      <path class="st4" d="M319.87,565.55c-6.41-25.09-12.82-50.18-19.23-75.27-2.3,1.51-5.46,3.69-9.06,6.5-3.67,2.86-8.53,6.68-13.88,12.49-2.63,2.83-5.99,6.83-9.44,12.03l-8.94,9.78c-1.28.93-2.9,1.22-4.33,1.81l-10.69,4.31c-1.95.79-3.7,1.8-5.4,3.05-.74.55-1.38,1.17-1.92,1.87-.76.98-1.31,2.07-1.71,3.39-2.91,9.63-6.42,21.72-1.4,25.69,1.12.88,3.6,1.13,8.57,1.62,3.38.34,6.21.37,8.22.33.35,6.6,5.88,11.84,12.49,11.84,6.6,0,12.12-5.24,12.46-11.84,44.61,0,89.21,0,133.82,0-.08,6.88,5.52,12.57,12.35,12.63,6.88.04,12.6-5.69,12.53-12.63h26.14c.4-1.29.79-2.59,1.18-3.92.37-1.24.72-2.47,1.06-3.7-17.04,0-54.38-.02-71.42-.02s-54.36.01-71.4.02Z"/>
      <path class="st4" d="M302.04,483.54c3.55,13.28,7.09,26.56,10.62,39.84,3.57,13.44,7.13,26.88,10.67,40.32h63.69c2.09-13.06,4.18-26.13,6.27-39.19.92,5.43,2.29,13.46,3.21,18.88,1.04,6.09,2.43,14.22,3.47,20.31h63.08c3.8-13.4,7.56-26.93,11.29-40.61,3.62-13.29,7.14-26.49,10.57-39.59-13.08,0-26.17,0-39.25.01-1.32,5.01-5.73,21.73-7.06,26.74-1.36,5.13-5.81,21.96-7.16,27.09-3.12-17.94-6.24-35.87-9.36-53.81-19.12,0-38.24.02-57.36.03-3.05,18.02-6.11,36.04-9.16,54.06-1.57-5.92-5.6-21.16-7.17-27.09-1.56-5.9-5.6-21.12-7.17-27.03-13.06,0-26.13.02-39.19.02Z"/>
      <path class="st2" d="M584.47,483.45l-3.54,22.32c-17.75.02-35.5.04-53.25.07-.54,2.32-1.08,4.64-1.61,6.95,17.76.04,35.52.09,53.28.13-1.11,6.81-2.22,13.62-3.33,20.44-18.16.01-36.31.02-54.47.03-.77,2.61-1.54,5.23-2.31,7.84l57,.05c-1.37,7.47-2.74,14.95-4.1,22.42h-102.22c7-26.75,14-53.5,21.01-80.25h93.56Z"/>
      <path class="st2" d="M482.11,372.11l-3.54,22.32c-17.75.02-35.5.04-53.25.07-.54,2.32-1.08,4.64-1.61,6.95,17.76.04,35.52.09,53.28.13-1.11,6.81-2.22,13.62-3.33,20.44-18.16.01-36.31.02-54.47.03-.77,2.61-1.54,5.23-2.31,7.84,19,.02,38,.03,57,.05-1.37,7.47-2.74,14.95-4.1,22.42h-102.22c7-26.75,14-53.5,21.01-80.25h93.56Z"/>
      <path class="st1" d="M574.47,533.66"/>
    </g>
    <path class="st0" d="M777.75,647.99c51.53-.17,103.05-.34,154.58-.51"/>
    <g>
      <path class="st4" d="M298.54,619.65h16.01c19.82,0,30.24,11.27,30.24,27.53s-11.27,28.29-30.92,28.29h-15.33v-55.83ZM313.95,667.94c15.67,0,21.35-9.49,21.35-20.67,0-12.03-7.03-20.08-21.52-20.08h-6.35v40.75h6.52Z"/>
      <path class="st4" d="M378.93,619.65h29.56l-2.54,7.54h-18.13v16.1h18.04v7.54h-18.04v17.11h20.92v7.54h-29.82v-55.83Z"/>
      <path class="st4" d="M439.08,619.65h8.89v48.29h20.08v7.54h-28.97v-55.83Z"/>
      <path class="st4" d="M495.24,619.65h8.89v55.83h-8.89v-55.83Z"/>
      <path class="st4" d="M530.48,619.65h9.66l12.2,31.6c1.69,4.4,2.96,8.13,4.15,11.61h.17c1.1-3.3,2.37-7.03,4.24-11.77l12.11-31.43h9.57l-22.45,56.16h-7.2l-22.45-56.16Z"/>
      <path class="st4" d="M608.92,619.65h29.56l-2.54,7.54h-18.13v16.1h18.04v7.54h-18.04v17.11h20.92v7.54h-29.82v-55.83Z"/>
      <path class="st4" d="M669.07,619.65h13.98c5.42,0,9.23.93,12.11,2.54,5.51,2.8,7.71,7.71,7.71,13.13,0,7.54-4.32,12.45-11.01,14.57v.17c1.69.93,3.9,3.98,6.86,8.98l9.57,16.43h-10.25l-8.56-14.82c-2.71-4.83-4.74-7.2-6.27-7.54h-5.25v22.36h-8.9v-55.83ZM682.71,645.74c2.8,0,4.83-.51,6.69-1.52,2.54-1.52,4.24-4.24,4.24-7.96,0-3.13-1.19-5.85-3.64-7.37-1.53-1.19-3.73-1.95-7.2-1.95h-4.83v18.81h4.74Z"/>
      <path class="st4" d="M748.87,653.28l-18.81-33.63h9.74l13.64,25.58h.17l13.3-25.58h9.66l-18.72,33.8v22.03h-8.98v-22.19Z"/>
    </g>
  </g>
</svg>