<?xml version="1.0" encoding="UTF-8"?>
<svg id="_Шар_1" data-name="Шар 1" xmlns="http://www.w3.org/2000/svg" viewBox="0 0 1778.85 521.15">
  <defs>
    <style>
      .cls-1 {
        fill: none;
        stroke: #de202e;
        stroke-miterlimit: 10;
        stroke-width: 6px;
      }

      .cls-2 {
        fill: #0f1216;
      }

      .cls-3 {
        fill: #df202e;
      }
    </style>
  </defs>
  <path class="cls-3" d="M117.94,236.12l16.51,25.86,15.64,25.57-113.7-44.9L0,228.9c8.16-3.59,14.62-3.65,22.42-5.42l133.64-30.24c1.12-.25,2.85.51,3.37.91s.25,3.01-.25,3.48l-41.24,38.49Z"/>
  <path class="cls-1" d="M529.5,477.79c-72.32.05-144.64.11-216.97.16-21.33,0-61.24-3.09-103.15-26.25-47.54-26.27-71.43-63.88-82.41-81.65-14.91-24.12-23.06-46.55-27.68-62.58"/>
  <path class="cls-1" d="M315.59,3.01c-37.87-.3-76.02,8.09-109.49,26.05-35.23,18.91-61.59,47.92-82.41,81.65-12.02,19.47-21.8,40.42-27.68,62.58"/>
  <g>
    <path class="cls-2" d="M477.65,289.63h-56.95l-8,13.96h-58.68l71.07-116.73h81.74c13.13,39.02,26.25,78.05,39.38,117.07h-64.64c-1.31-4.77-2.61-9.54-3.92-14.31ZM458.82,222.48l-18.51,32.63h27.61l-9.1-32.63Z"/>
    <path class="cls-2" d="M540.88,263.9h68.25c0,5.02.63,12.55,17.1,12.55,15.22,0,18.04-4.55,18.04-8.31,0-4.55-2.35-7.53-21.34-8.63l-19.3-1.1c-42.99-2.51-53.19-18.04-53.19-36.09,0-2.35.47-5.65.94-7.69,4.71-20.55,25.57-29.81,77.35-29.81h19.45c66.84,0,71.7,21.65,70.13,37.5h-66.99c0-4.24-1.26-9.41-16.47-9.41-13.65,0-17.42,1.88-17.42,6.12s3.61,6.28,21.49,7.22l19.14.94c42.67,2.04,57.11,11.77,57.11,32.95,0,2.98-.16,5.96-.47,8.16-2.82,20.87-18.04,37.65-82.37,37.65h-20.08c-69.66,0-72.96-27.46-71.39-42.05Z"/>
    <path class="cls-2" d="M760.84,262.17l-53.03-75.31h64.64l23.69,35.3,35.3-35.3h63.86l-76.41,76.09-6.28,40.64h-58.21l6.43-41.42Z"/>
    <path class="cls-2" d="M1435.4,263.62h68.25c0,5.02.63,12.55,17.1,12.55,15.22,0,18.04-4.55,18.04-8.31,0-4.55-2.35-7.53-21.34-8.63l-19.3-1.1c-42.99-2.51-53.19-18.04-53.19-36.09,0-2.35.47-5.65.94-7.69,4.71-20.55,25.57-29.81,77.35-29.81h19.45c66.84,0,71.7,21.65,70.13,37.5h-66.99c0-4.24-1.26-9.41-16.47-9.41-13.65,0-17.42,1.88-17.42,6.12s3.61,6.28,21.49,7.22l19.14.94c42.67,2.04,57.11,11.77,57.11,32.95,0,2.98-.16,5.96-.47,8.16-2.82,20.87-18.04,37.65-82.37,37.65h-20.08c-69.66,0-72.96-27.46-71.39-42.05Z"/>
    <path class="cls-2" d="M1665.1,226.75h-49.11l6.43-40.16h156.42l-6.43,40.16h-49.11c-4.12,25.73-8.24,51.46-12.36,77.18h-57.97c4.04-25.73,8.08-51.46,12.13-77.18Z"/>
    <path class="cls-3" d="M1057.58,306.64c-9.37-36.69-18.75-73.38-28.12-110.06-3.36,2.21-7.98,5.39-13.25,9.51-5.37,4.18-12.47,9.77-20.29,18.26-3.84,4.14-8.75,9.99-13.81,17.59l-13.07,14.3c-1.87,1.35-4.24,1.79-6.33,2.65l-15.64,6.31c-2.84,1.15-5.41,2.63-7.9,4.46-1.08.81-2.02,1.71-2.81,2.74-1.12,1.44-1.92,3.03-2.5,4.96-4.26,14.08-9.39,31.76-2.05,37.56,1.63,1.29,5.26,1.65,12.53,2.37,4.94.49,9.09.54,12.03.49.51,9.66,8.6,17.32,18.26,17.31,9.65,0,17.72-7.67,18.23-17.31,65.23,0,130.45,0,195.68,0-.12,10.07,8.08,18.38,18.06,18.46,10.07.06,18.42-8.32,18.32-18.46h38.22c.58-1.88,1.16-3.79,1.73-5.73.53-1.82,1.05-3.62,1.55-5.4-24.92-.01-79.51-.03-104.44-.03s-79.5.02-104.41.03Z"/>
    <path class="cls-3" d="M1031.51,186.72c5.2,19.42,10.37,38.83,15.53,58.25,5.22,19.65,10.42,39.3,15.61,58.96h93.13c3.06-19.1,6.11-38.2,9.17-57.31,1.35,7.94,3.34,19.68,4.7,27.61,1.52,8.91,3.55,20.79,5.08,29.7h92.25c5.55-19.59,11.06-39.38,16.5-59.38,5.29-19.44,10.44-38.73,15.45-57.89-19.13,0-38.26.01-57.39.02-1.93,7.32-8.39,31.77-10.32,39.1-1.98,7.5-8.49,32.11-10.47,39.61-4.56-26.23-9.13-52.45-13.69-78.68-27.96.01-55.92.03-83.87.04-4.47,26.35-8.93,52.7-13.4,79.06-2.29-8.66-8.19-30.94-10.48-39.61-2.29-8.63-8.19-30.89-10.48-39.52-19.1.01-38.2.02-57.3.03Z"/>
    <path class="cls-2" d="M1444.5,186.59l-5.18,32.63c-25.96.03-51.92.06-77.87.1-.79,3.39-1.57,6.78-2.36,10.17,25.97.06,51.94.13,77.9.19-1.62,9.96-3.25,19.92-4.87,29.88-26.55.02-53.1.03-79.65.05-1.12,3.82-2.25,7.64-3.37,11.46,27.78.02,55.56.05,83.35.07-2,10.93-4,21.86-6,32.79h-149.48c10.24-39.12,20.48-78.23,30.72-117.35h136.81Z"/>
    <path class="cls-2" d="M371.01,186.17l-5.18,32.63c-25.96.03-51.92.06-77.87.1-.79,3.39-1.57,6.78-2.36,10.17,25.97.06,51.94.13,77.9.19-1.62,9.96-3.25,19.92-4.87,29.88-26.55.02-53.1.03-79.65.05-1.12,3.82-2.25,7.64-3.37,11.46,27.78.02,55.56.05,83.35.07-2,10.93-4,21.86-6,32.79h-149.48c10.24-39.12,20.48-78.23,30.72-117.35h136.81Z"/>
  </g>
  <path class="cls-1" d="M1468.72,480.47c75.35-.25,150.69-.5,226.04-.75"/>
  <g>
    <path class="cls-3" d="M649.5,439.03h23.41c28.99,0,44.22,16.48,44.22,40.26s-16.48,41.37-45.21,41.37h-22.42v-81.63ZM672.04,509.63c22.92,0,31.22-13.87,31.22-30.22,0-17.59-10.28-29.36-31.46-29.36h-9.29v59.58h9.54Z"/>
    <path class="cls-3" d="M767.05,439.03h43.23l-3.72,11.02h-26.51v23.54h26.38v11.02h-26.38v25.02h30.6v11.02h-43.6v-81.63Z"/>
    <path class="cls-3" d="M855,439.03h13.01v70.61h29.36v11.02h-42.36v-81.63Z"/>
    <path class="cls-3" d="M937.13,439.03h13.01v81.63h-13.01v-81.63Z"/>
    <path class="cls-3" d="M988.66,439.03h14.12l17.84,46.2c2.48,6.44,4.34,11.89,6.07,16.97h.25c1.61-4.83,3.47-10.28,6.19-17.22l17.71-45.96h14l-32.83,82.13h-10.53l-32.83-82.13Z"/>
    <path class="cls-3" d="M1103.36,439.03h43.23l-3.72,11.02h-26.51v23.54h26.39v11.02h-26.39v25.02h30.6v11.02h-43.6v-81.63Z"/>
    <path class="cls-3" d="M1191.31,439.03h20.44c7.93,0,13.5,1.36,17.71,3.72,8.05,4.09,11.27,11.27,11.27,19.2,0,11.03-6.32,18.21-16.1,21.31v.25c2.48,1.36,5.7,5.82,10.03,13.13l14,24.03h-14.99l-12.51-21.68c-3.96-7.06-6.94-10.53-9.17-11.02h-7.68v32.7h-13.01v-81.63ZM1211.26,477.18c4.09,0,7.06-.74,9.79-2.23,3.72-2.23,6.19-6.19,6.19-11.64,0-4.58-1.73-8.55-5.33-10.78-2.23-1.73-5.45-2.85-10.53-2.85h-7.06v27.5h6.94Z"/>
    <path class="cls-3" d="M1308,488.2l-27.5-49.18h14.25l19.94,37.41h.25l19.45-37.41h14.12l-27.38,49.43v32.21h-13.13v-32.45Z"/>
  </g>
</svg>